{
	"asset":{
		"generator":"Khronos glTF Blender I/O v4.4.56",
		"version":"2.0"
	},
	"extensionsUsed":[
		"KHR_lights_punctual"
	],
	"extensionsRequired":[
		"KHR_lights_punctual"
	],
	"extensions":{
		"KHR_lights_punctual":{
			"lights":[
				{
					"color":[
						1,
						1,
						1
					],
					"intensity":79.57747154594767,
					"type":"point",
					"name":"Light.001"
				},
				{
					"color":[
						1,
						1,
						1
					],
					"intensity":79.57747154594767,
					"type":"point",
					"name":"Light"
				},
				{
					"color":[
						1,
						1,
						1
					],
					"intensity":79.57747154594767,
					"type":"point",
					"name":"Light.002"
				}
			]
		}
	},
	"scene":0,
	"scenes":[
		{
			"name":"Scene",
			"nodes":[
				0,
				1,
				2,
				3,
				4,
				5,
				6,
				7,
				8
			]
		}
	],
	"nodes":[
		{
			"name":"Empty",
			"rotation":[
				0.01675131544470787,
				0,
				0,
				0.9998596906661987
			],
			"translation":[
				-1.336281657218933,
				-0.30022183060646057,
				3.8623268604278564
			]
		},
		{
			"extensions":{
				"KHR_lights_punctual":{
					"light":0
				}
			},
			"name":"Light.001",
			"rotation":[
				-0.28416624665260315,
				0.7269423604011536,
				0.34203389286994934,
				0.5232754945755005
			],
			"translation":[
				4.076245307922363,
				5.903861999511719,
				-1.0054539442062378
			]
		},
		{
			"extensions":{
				"KHR_lights_punctual":{
					"light":1
				}
			},
			"name":"Light",
			"rotation":[
				-0.28416627645492554,
				0.7269423007965088,
				0.34203392267227173,
				0.5232754945755005
			],
			"translation":[
				4.076245307922363,
				5.903861999511719,
				-1.0054539442062378
			]
		},
		{
			"camera":0,
			"name":"Camera",
			"rotation":[
				-0.20997299253940582,
				0.3857799470424652,
				0.09062844514846802,
				0.8937962055206299
			],
			"translation":[
				7.358891487121582,
				4.958309173583984,
				6.925790786743164
			]
		},
		{
			"mesh":0,
			"name":"Cube.001",
			"rotation":[
				0,
				0,
				0.7071068286895752,
				0.7071068286895752
			],
			"scale":[
				-0.4308398365974426,
				-0.3962814211845398,
				-0.43084004521369934
			]
		},
		{
			"extensions":{
				"KHR_lights_punctual":{
					"light":2
				}
			},
			"name":"Light.002",
			"rotation":[
				-0.7071068286895752,
				0,
				0,
				0.7071068286895752
			]
		},
		{
			"camera":1,
			"name":"Camera.001",
			"rotation":[
				-0.7071068286895752,
				0,
				0,
				0.7071068286895752
			]
		},
		{
			"mesh":1,
			"name":"Cylinder"
		},
		{
			"mesh":2,
			"name":"Cube.002"
		}
	],
	"cameras":[
		{
			"name":"Camera",
			"perspective":{
				"aspectRatio":1.7777777777777777,
				"yfov":0.39959652046304894,
				"zfar":100,
				"znear":0.10000000149011612
			},
			"type":"perspective"
		},
		{
			"name":"Camera.002",
			"perspective":{
				"aspectRatio":1.7777777777777777,
				"yfov":0.39959652046304894,
				"zfar":100,
				"znear":0.10000000149011612
			},
			"type":"perspective"
		}
	],
	"animations":[
		{
			"channels":[
				{
					"sampler":0,
					"target":{
						"node":4,
						"path":"translation"
					}
				},
				{
					"sampler":1,
					"target":{
						"node":4,
						"path":"rotation"
					}
				},
				{
					"sampler":2,
					"target":{
						"node":4,
						"path":"scale"
					}
				}
			],
			"name":"Cube.001Action",
			"samplers":[
				{
					"input":12,
					"interpolation":"LINEAR",
					"output":13
				},
				{
					"input":12,
					"interpolation":"LINEAR",
					"output":14
				},
				{
					"input":12,
					"interpolation":"LINEAR",
					"output":15
				}
			]
		}
	],
	"materials":[
		{
			"doubleSided":true,
			"name":"Material.002",
			"pbrMetallicRoughness":{
				"baseColorFactor":[
					0,
					0.148156076669693,
					0.604973316192627,
					1
				],
				"metallicFactor":0,
				"roughnessFactor":0.5
			}
		},
		{
			"doubleSided":true,
			"name":"Material.003",
			"pbrMetallicRoughness":{
				"baseColorFactor":[
					0.2461954951286316,
					0.23053573071956635,
					0.23651087284088135,
					1
				],
				"metallicFactor":0,
				"roughnessFactor":0.51871657371521
			}
		}
	],
	"meshes":[
		{
			"name":"Cube.002",
			"primitives":[
				{
					"attributes":{
						"POSITION":0,
						"NORMAL":1,
						"TEXCOORD_0":2
					},
					"indices":3,
					"material":0
				}
			]
		},
		{
			"name":"Cylinder.005",
			"primitives":[
				{
					"attributes":{
						"POSITION":4,
						"NORMAL":5,
						"TEXCOORD_0":6
					},
					"indices":7,
					"material":1
				}
			]
		},
		{
			"name":"Cube.005",
			"primitives":[
				{
					"attributes":{
						"POSITION":8,
						"NORMAL":9,
						"TEXCOORD_0":10
					},
					"indices":11
				}
			]
		}
	],
	"accessors":[
		{
			"bufferView":0,
			"componentType":5126,
			"count":503,
			"max":[
				2.48854660987854,
				0.9837498068809509,
				2.4817569255828857
			],
			"min":[
				-2.6862802505493164,
				-1.035017728805542,
				-2.59628963470459
			],
			"type":"VEC3"
		},
		{
			"bufferView":1,
			"componentType":5126,
			"count":503,
			"type":"VEC3"
		},
		{
			"bufferView":2,
			"componentType":5126,
			"count":503,
			"type":"VEC2"
		},
		{
			"bufferView":3,
			"componentType":5123,
			"count":987,
			"type":"SCALAR"
		},
		{
			"bufferView":4,
			"componentType":5126,
			"count":320,
			"max":[
				1.6559181213378906,
				0.5986539125442505,
				2.3870716094970703
			],
			"min":[
				-1.2067670822143555,
				-0.5618553757667542,
				-1.523603916168213
			],
			"type":"VEC3"
		},
		{
			"bufferView":5,
			"componentType":5126,
			"count":320,
			"type":"VEC3"
		},
		{
			"bufferView":6,
			"componentType":5126,
			"count":320,
			"type":"VEC2"
		},
		{
			"bufferView":7,
			"componentType":5123,
			"count":630,
			"type":"SCALAR"
		},
		{
			"bufferView":8,
			"componentType":5126,
			"count":284,
			"max":[
				1.2380454540252686,
				0.9999999403953552,
				2.6293747425079346
			],
			"min":[
				-3.9519834518432617,
				-1.0187673568725586,
				0.08905184268951416
			],
			"type":"VEC3"
		},
		{
			"bufferView":9,
			"componentType":5126,
			"count":284,
			"type":"VEC3"
		},
		{
			"bufferView":10,
			"componentType":5126,
			"count":284,
			"type":"VEC2"
		},
		{
			"bufferView":11,
			"componentType":5123,
			"count":546,
			"type":"SCALAR"
		},
		{
			"bufferView":12,
			"componentType":5126,
			"count":1,
			"max":[
				0.041666666666666664
			],
			"min":[
				0.041666666666666664
			],
			"type":"SCALAR"
		},
		{
			"bufferView":13,
			"componentType":5126,
			"count":1,
			"type":"VEC3"
		},
		{
			"bufferView":14,
			"componentType":5126,
			"count":1,
			"type":"VEC4"
		},
		{
			"bufferView":15,
			"componentType":5126,
			"count":1,
			"type":"VEC3"
		}
	],
	"bufferViews":[
		{
			"buffer":0,
			"byteLength":6036,
			"byteOffset":0,
			"target":34962
		},
		{
			"buffer":0,
			"byteLength":6036,
			"byteOffset":6036,
			"target":34962
		},
		{
			"buffer":0,
			"byteLength":4024,
			"byteOffset":12072,
			"target":34962
		},
		{
			"buffer":0,
			"byteLength":1974,
			"byteOffset":16096,
			"target":34963
		},
		{
			"buffer":0,
			"byteLength":3840,
			"byteOffset":18072,
			"target":34962
		},
		{
			"buffer":0,
			"byteLength":3840,
			"byteOffset":21912,
			"target":34962
		},
		{
			"buffer":0,
			"byteLength":2560,
			"byteOffset":25752,
			"target":34962
		},
		{
			"buffer":0,
			"byteLength":1260,
			"byteOffset":28312,
			"target":34963
		},
		{
			"buffer":0,
			"byteLength":3408,
			"byteOffset":29572,
			"target":34962
		},
		{
			"buffer":0,
			"byteLength":3408,
			"byteOffset":32980,
			"target":34962
		},
		{
			"buffer":0,
			"byteLength":2272,
			"byteOffset":36388,
			"target":34962
		},
		{
			"buffer":0,
			"byteLength":1092,
			"byteOffset":38660,
			"target":34963
		},
		{
			"buffer":0,
			"byteLength":4,
			"byteOffset":39752
		},
		{
			"buffer":0,
			"byteLength":12,
			"byteOffset":39756
		},
		{
			"buffer":0,
			"byteLength":16,
			"byteOffset":39768
		},
		{
			"buffer":0,
			"byteLength":12,
			"byteOffset":39784
		}
	],
	"buffers":[
		{
			"byteLength":39796,
			"uri":"Meeples-e9d870e6293432658843e24a5414bf81.bin"
		}
	]
}
