{
	"asset":{
		"generator":"Khronos glTF Blender I/O v4.4.56",
		"version":"2.0"
	},
	"scene":0,
	"scenes":[
		{
			"name":"Scene",
			"nodes":[
				0,
				1
			]
		}
	],
	"nodes":[
		{
			"mesh":0,
			"name":"Cylinder.001",
			"rotation":[
				0.5,
				0.5,
				-0.5,
				0.5
			],
			"scale":[
				0.8030305504798889,
				1.5,
				0.8030310273170471
			],
			"translation":[
				0.005905019119381905,
				1.8763768672943115,
				1.5664546489715576
			]
		},
		{
			"mesh":1,
			"name":"Cylinder.002",
			"rotation":[
				0.5,
				0.5,
				-0.5,
				0.5
			],
			"scale":[
				0.8030305504798889,
				1.5,
				0.8030310273170471
			],
			"translation":[
				0.005905019119381905,
				1.8763768672943115,
				1.5664546489715576
			]
		}
	],
	"materials":[
		{
			"doubleSided":true,
			"name":"Material.001",
			"pbrMetallicRoughness":{
				"baseColorFactor":[
					0.05148277059197426,
					0.11676394194364548,
					0.5173283219337463,
					1
				],
				"metallicFactor":0
			}
		}
	],
	"meshes":[
		{
			"name":"Outline",
			"primitives":[
				{
					"attributes":{
						"POSITION":0,
						"NORMAL":1,
						"TEXCOORD_0":2
					},
					"indices":3
				}
			]
		},
		{
			"name":"Body",
			"primitives":[
				{
					"attributes":{
						"POSITION":4,
						"NORMAL":5,
						"TEXCOORD_0":6
					},
					"indices":7,
					"material":0
				}
			]
		}
	],
	"accessors":[
		{
			"bufferView":0,
			"componentType":5126,
			"count":129,
			"max":[
				6.125792026519775,
				1.0510450601577759,
				3.8886380195617676
			],
			"min":[
				-4.369266510009766,
				-1.0047495365142822,
				-3.501718521118164
			],
			"type":"VEC3"
		},
		{
			"bufferView":1,
			"componentType":5126,
			"count":129,
			"type":"VEC3"
		},
		{
			"bufferView":2,
			"componentType":5126,
			"count":129,
			"type":"VEC2"
		},
		{
			"bufferView":3,
			"componentType":5123,
			"count":588,
			"type":"SCALAR"
		},
		{
			"bufferView":4,
			"componentType":5126,
			"count":316,
			"max":[
				6.125792026519775,
				1.0510450601577759,
				3.8886380195617676
			],
			"min":[
				-4.369266510009766,
				-1.0047495365142822,
				-3.501718521118164
			],
			"type":"VEC3"
		},
		{
			"bufferView":5,
			"componentType":5126,
			"count":316,
			"type":"VEC3"
		},
		{
			"bufferView":6,
			"componentType":5126,
			"count":316,
			"type":"VEC2"
		},
		{
			"bufferView":7,
			"componentType":5123,
			"count":600,
			"type":"SCALAR"
		}
	],
	"bufferViews":[
		{
			"buffer":0,
			"byteLength":1548,
			"byteOffset":0,
			"target":34962
		},
		{
			"buffer":0,
			"byteLength":1548,
			"byteOffset":1548,
			"target":34962
		},
		{
			"buffer":0,
			"byteLength":1032,
			"byteOffset":3096,
			"target":34962
		},
		{
			"buffer":0,
			"byteLength":1176,
			"byteOffset":4128,
			"target":34963
		},
		{
			"buffer":0,
			"byteLength":3792,
			"byteOffset":5304,
			"target":34962
		},
		{
			"buffer":0,
			"byteLength":3792,
			"byteOffset":9096,
			"target":34962
		},
		{
			"buffer":0,
			"byteLength":2528,
			"byteOffset":12888,
			"target":34962
		},
		{
			"buffer":0,
			"byteLength":1200,
			"byteOffset":15416,
			"target":34963
		}
	],
	"buffers":[
		{
			"byteLength":16616,
			"uri":"Elephant-155dd6d2c85119e5fdf3e9a6adca0dbf.bin"
		}
	]
}
