{
	"asset":{
		"generator":"Khronos glTF Blender I/O v4.4.56",
		"version":"2.0"
	},
	"scene":0,
	"scenes":[
		{
			"name":"Scene",
			"nodes":[
				0,
				1
			]
		}
	],
	"nodes":[
		{
			"mesh":0,
			"name":"Meeple 2",
			"rotation":[
				0,
				-1,
				0,
				4.371138828673793e-08
			],
			"scale":[
				1,
				0.5,
				0.9900000095367432
			]
		},
		{
			"mesh":1,
			"name":"Meeple 1",
			"rotation":[
				0,
				-1,
				0,
				4.371138828673793e-08
			],
			"scale":[
				1,
				0.5,
				0.9900000095367432
			]
		}
	],
	"materials":[
		{
			"doubleSided":true,
			"name":"Material.008",
			"pbrMetallicRoughness":{
				"baseColorFactor":[
					0.800000011920929,
					0.800000011920929,
					0.800000011920929,
					1
				],
				"metallicFactor":0,
				"roughnessFactor":0.5
			}
		},
		{
			"doubleSided":true,
			"name":"Material.006",
			"pbrMetallicRoughness":{
				"baseColorFactor":[
					0.800000011920929,
					0.800000011920929,
					0.800000011920929,
					1
				],
				"metallicFactor":0,
				"roughnessFactor":0.5
			}
		},
		{
			"doubleSided":true,
			"name":"Material.003",
			"pbrMetallicRoughness":{
				"baseColorFactor":[
					0.800000011920929,
					0.800000011920929,
					0.800000011920929,
					1
				],
				"metallicFactor":0,
				"roughnessFactor":0.5
			}
		},
		{
			"doubleSided":true,
			"name":"Material.005",
			"pbrMetallicRoughness":{
				"baseColorFactor":[
					0.800000011920929,
					0.800000011920929,
					0.800000011920929,
					1
				],
				"metallicFactor":0,
				"roughnessFactor":0.5
			}
		}
	],
	"meshes":[
		{
			"name":"Cube.001",
			"primitives":[
				{
					"attributes":{
						"POSITION":0,
						"NORMAL":1,
						"TEXCOORD_0":2
					},
					"indices":3
				},
				{
					"attributes":{
						"POSITION":4,
						"NORMAL":5,
						"TEXCOORD_0":6
					},
					"indices":7,
					"material":0
				},
				{
					"attributes":{
						"POSITION":8,
						"NORMAL":9,
						"TEXCOORD_0":10
					},
					"indices":11,
					"material":1
				}
			]
		},
		{
			"name":"Cube.002",
			"primitives":[
				{
					"attributes":{
						"POSITION":12,
						"NORMAL":13,
						"TEXCOORD_0":14
					},
					"indices":15
				},
				{
					"attributes":{
						"POSITION":16,
						"NORMAL":17,
						"TEXCOORD_0":18
					},
					"indices":19,
					"material":2
				},
				{
					"attributes":{
						"POSITION":20,
						"NORMAL":21,
						"TEXCOORD_0":22
					},
					"indices":23,
					"material":3
				}
			]
		}
	],
	"accessors":[
		{
			"bufferView":0,
			"componentType":5126,
			"count":351,
			"max":[
				1.0000417232513428,
				3.9182190895080566,
				2.2322323322296143
			],
			"min":[
				-0.9999586343765259,
				-2.401719093322754,
				-2.2163076400756836
			],
			"type":"VEC3"
		},
		{
			"bufferView":1,
			"componentType":5126,
			"count":351,
			"type":"VEC3"
		},
		{
			"bufferView":2,
			"componentType":5126,
			"count":351,
			"type":"VEC2"
		},
		{
			"bufferView":3,
			"componentType":5123,
			"count":681,
			"type":"SCALAR"
		},
		{
			"bufferView":4,
			"componentType":5126,
			"count":20,
			"max":[
				1.0000414848327637,
				-1.601288080215454,
				1.501451849937439
			],
			"min":[
				-0.9999585747718811,
				-5.001853942871094,
				-0.009771544486284256
			],
			"type":"VEC3"
		},
		{
			"bufferView":5,
			"componentType":5126,
			"count":20,
			"type":"VEC3"
		},
		{
			"bufferView":6,
			"componentType":5126,
			"count":20,
			"type":"VEC2"
		},
		{
			"bufferView":7,
			"componentType":5123,
			"count":30,
			"type":"SCALAR"
		},
		{
			"bufferView":8,
			"componentType":5126,
			"count":23,
			"max":[
				1.0000416040420532,
				-1.601288080215454,
				0.7941291928291321
			],
			"min":[
				-0.9999584555625916,
				-5.0018534660339355,
				-1.6481218338012695
			],
			"type":"VEC3"
		},
		{
			"bufferView":9,
			"componentType":5126,
			"count":23,
			"type":"VEC3"
		},
		{
			"bufferView":10,
			"componentType":5126,
			"count":23,
			"type":"VEC2"
		},
		{
			"bufferView":11,
			"componentType":5123,
			"count":33,
			"type":"SCALAR"
		},
		{
			"bufferView":12,
			"componentType":5126,
			"count":182,
			"max":[
				1.0000417232513428,
				3.9182190895080566,
				2.2322323322296143
			],
			"min":[
				-0.9999586343765259,
				-2.401719093322754,
				-2.2163076400756836
			],
			"type":"VEC3"
		},
		{
			"bufferView":13,
			"componentType":5126,
			"count":182,
			"type":"VEC3"
		},
		{
			"bufferView":14,
			"componentType":5126,
			"count":182,
			"type":"VEC2"
		},
		{
			"bufferView":15,
			"componentType":5123,
			"count":681,
			"type":"SCALAR"
		},
		{
			"bufferView":16,
			"componentType":5126,
			"count":12,
			"max":[
				1.0000414848327637,
				-1.601288080215454,
				1.501451849937439
			],
			"min":[
				-0.9999585747718811,
				-5.001853942871094,
				-0.009771544486284256
			],
			"type":"VEC3"
		},
		{
			"bufferView":17,
			"componentType":5126,
			"count":12,
			"type":"VEC3"
		},
		{
			"bufferView":18,
			"componentType":5126,
			"count":12,
			"type":"VEC2"
		},
		{
			"bufferView":19,
			"componentType":5123,
			"count":30,
			"type":"SCALAR"
		},
		{
			"bufferView":20,
			"componentType":5126,
			"count":15,
			"max":[
				1.0000416040420532,
				-1.601288080215454,
				0.7941291928291321
			],
			"min":[
				-0.9999584555625916,
				-5.0018534660339355,
				-1.6481218338012695
			],
			"type":"VEC3"
		},
		{
			"bufferView":21,
			"componentType":5126,
			"count":15,
			"type":"VEC3"
		},
		{
			"bufferView":22,
			"componentType":5126,
			"count":15,
			"type":"VEC2"
		},
		{
			"bufferView":23,
			"componentType":5123,
			"count":33,
			"type":"SCALAR"
		}
	],
	"bufferViews":[
		{
			"buffer":0,
			"byteLength":4212,
			"byteOffset":0,
			"target":34962
		},
		{
			"buffer":0,
			"byteLength":4212,
			"byteOffset":4212,
			"target":34962
		},
		{
			"buffer":0,
			"byteLength":2808,
			"byteOffset":8424,
			"target":34962
		},
		{
			"buffer":0,
			"byteLength":1362,
			"byteOffset":11232,
			"target":34963
		},
		{
			"buffer":0,
			"byteLength":240,
			"byteOffset":12596,
			"target":34962
		},
		{
			"buffer":0,
			"byteLength":240,
			"byteOffset":12836,
			"target":34962
		},
		{
			"buffer":0,
			"byteLength":160,
			"byteOffset":13076,
			"target":34962
		},
		{
			"buffer":0,
			"byteLength":60,
			"byteOffset":13236,
			"target":34963
		},
		{
			"buffer":0,
			"byteLength":276,
			"byteOffset":13296,
			"target":34962
		},
		{
			"buffer":0,
			"byteLength":276,
			"byteOffset":13572,
			"target":34962
		},
		{
			"buffer":0,
			"byteLength":184,
			"byteOffset":13848,
			"target":34962
		},
		{
			"buffer":0,
			"byteLength":66,
			"byteOffset":14032,
			"target":34963
		},
		{
			"buffer":0,
			"byteLength":2184,
			"byteOffset":14100,
			"target":34962
		},
		{
			"buffer":0,
			"byteLength":2184,
			"byteOffset":16284,
			"target":34962
		},
		{
			"buffer":0,
			"byteLength":1456,
			"byteOffset":18468,
			"target":34962
		},
		{
			"buffer":0,
			"byteLength":1362,
			"byteOffset":19924,
			"target":34963
		},
		{
			"buffer":0,
			"byteLength":144,
			"byteOffset":21288,
			"target":34962
		},
		{
			"buffer":0,
			"byteLength":144,
			"byteOffset":21432,
			"target":34962
		},
		{
			"buffer":0,
			"byteLength":96,
			"byteOffset":21576,
			"target":34962
		},
		{
			"buffer":0,
			"byteLength":60,
			"byteOffset":21672,
			"target":34963
		},
		{
			"buffer":0,
			"byteLength":180,
			"byteOffset":21732,
			"target":34962
		},
		{
			"buffer":0,
			"byteLength":180,
			"byteOffset":21912,
			"target":34962
		},
		{
			"buffer":0,
			"byteLength":120,
			"byteOffset":22092,
			"target":34962
		},
		{
			"buffer":0,
			"byteLength":66,
			"byteOffset":22212,
			"target":34963
		}
	],
	"buffers":[
		{
			"byteLength":22280,
			"uri":"Meeple2-348ee88484df242ba60018e0d93913aa.bin"
		}
	]
}
